<mxfile host="Electron" modified="2023-11-14T12:24:20.301Z" agent="Mozilla/5.0 (Windows NT 10.0; Win64; x64) AppleWebKit/537.36 (KHTML, like Gecko) draw.io/22.0.3 Chrome/114.0.5735.289 Electron/25.8.4 Safari/537.36" etag="7ZPgRBD7Uu0F9pVQouWE" version="22.0.3" type="device">
  <diagram name="Page-1" id="2YBvvXClWsGukQMizWep">
    <mxGraphModel dx="1050" dy="621" grid="1" gridSize="10" guides="1" tooltips="1" connect="1" arrows="1" fold="1" page="1" pageScale="1" pageWidth="850" pageHeight="1100" math="0" shadow="0">
      <root>
        <mxCell id="0" />
        <mxCell id="1" parent="0" />
        <mxCell id="Ynnt0v_wUZmYZOfOkir--56" value="&lt;font style=&quot;font-size: 8px;&quot;&gt;receiveMessage&lt;/font&gt;" style="html=1;verticalAlign=bottom;endArrow=block;curved=0;rounded=0;" edge="1" parent="1">
          <mxGeometry width="80" relative="1" as="geometry">
            <mxPoint x="235" y="390" as="sourcePoint" />
            <mxPoint x="799.5" y="390" as="targetPoint" />
          </mxGeometry>
        </mxCell>
        <mxCell id="Ynnt0v_wUZmYZOfOkir--1" value="" style="shape=umlLifeline;perimeter=lifelinePerimeter;whiteSpace=wrap;html=1;container=1;dropTarget=0;collapsible=0;recursiveResize=0;outlineConnect=0;portConstraint=eastwest;newEdgeStyle={&quot;curved&quot;:0,&quot;rounded&quot;:0};participant=umlActor;" vertex="1" parent="1">
          <mxGeometry x="110" y="70" width="20" height="470" as="geometry" />
        </mxCell>
        <mxCell id="Ynnt0v_wUZmYZOfOkir--3" value=":SocketIO" style="shape=umlLifeline;perimeter=lifelinePerimeter;whiteSpace=wrap;html=1;container=1;dropTarget=0;collapsible=0;recursiveResize=0;outlineConnect=0;portConstraint=eastwest;newEdgeStyle={&quot;curved&quot;:0,&quot;rounded&quot;:0};" vertex="1" parent="1">
          <mxGeometry x="180" y="70" width="100" height="470" as="geometry" />
        </mxCell>
        <mxCell id="Ynnt0v_wUZmYZOfOkir--16" value="" style="html=1;points=[[0,0,0,0,5],[0,1,0,0,-5],[1,0,0,0,5],[1,1,0,0,-5]];perimeter=orthogonalPerimeter;outlineConnect=0;targetShapes=umlLifeline;portConstraint=eastwest;newEdgeStyle={&quot;curved&quot;:0,&quot;rounded&quot;:0};" vertex="1" parent="Ynnt0v_wUZmYZOfOkir--3">
          <mxGeometry x="45" y="80" width="10" height="130" as="geometry" />
        </mxCell>
        <mxCell id="Ynnt0v_wUZmYZOfOkir--52" value="" style="html=1;points=[[0,0,0,0,5],[0,1,0,0,-5],[1,0,0,0,5],[1,1,0,0,-5]];perimeter=orthogonalPerimeter;outlineConnect=0;targetShapes=umlLifeline;portConstraint=eastwest;newEdgeStyle={&quot;curved&quot;:0,&quot;rounded&quot;:0};" vertex="1" parent="Ynnt0v_wUZmYZOfOkir--3">
          <mxGeometry x="45" y="300" width="10" height="25" as="geometry" />
        </mxCell>
        <mxCell id="Ynnt0v_wUZmYZOfOkir--4" value="User" style="text;html=1;strokeColor=none;fillColor=none;align=center;verticalAlign=middle;whiteSpace=wrap;rounded=0;" vertex="1" parent="1">
          <mxGeometry x="90" y="30" width="60" height="30" as="geometry" />
        </mxCell>
        <mxCell id="Ynnt0v_wUZmYZOfOkir--17" value="&lt;font style=&quot;font-size: 8px;&quot;&gt;connectToChatroom&lt;/font&gt;" style="html=1;verticalAlign=bottom;endArrow=block;curved=0;rounded=0;entryX=0.086;entryY=0.004;entryDx=0;entryDy=0;entryPerimeter=0;" edge="1" target="Ynnt0v_wUZmYZOfOkir--16" parent="1" source="Ynnt0v_wUZmYZOfOkir--1">
          <mxGeometry relative="1" as="geometry">
            <mxPoint x="335" y="155" as="sourcePoint" />
          </mxGeometry>
        </mxCell>
        <mxCell id="Ynnt0v_wUZmYZOfOkir--21" value="" style="group" vertex="1" connectable="0" parent="1">
          <mxGeometry x="770" y="30" width="60" height="390" as="geometry" />
        </mxCell>
        <mxCell id="Ynnt0v_wUZmYZOfOkir--2" value="" style="shape=umlLifeline;perimeter=lifelinePerimeter;whiteSpace=wrap;html=1;container=1;dropTarget=0;collapsible=0;recursiveResize=0;outlineConnect=0;portConstraint=eastwest;newEdgeStyle={&quot;curved&quot;:0,&quot;rounded&quot;:0};participant=umlActor;" vertex="1" parent="Ynnt0v_wUZmYZOfOkir--21">
          <mxGeometry x="20" y="40" width="20" height="350" as="geometry" />
        </mxCell>
        <mxCell id="Ynnt0v_wUZmYZOfOkir--5" value="Other Users" style="text;html=1;strokeColor=none;fillColor=none;align=center;verticalAlign=middle;whiteSpace=wrap;rounded=0;" vertex="1" parent="Ynnt0v_wUZmYZOfOkir--21">
          <mxGeometry width="60" height="30" as="geometry" />
        </mxCell>
        <mxCell id="Ynnt0v_wUZmYZOfOkir--6" value="" style="shape=umlActor;verticalLabelPosition=bottom;verticalAlign=top;html=1;" vertex="1" parent="Ynnt0v_wUZmYZOfOkir--21">
          <mxGeometry x="35" y="30" width="20" height="40" as="geometry" />
        </mxCell>
        <mxCell id="Ynnt0v_wUZmYZOfOkir--7" value="" style="shape=umlActor;verticalLabelPosition=bottom;verticalAlign=top;html=1;" vertex="1" parent="Ynnt0v_wUZmYZOfOkir--21">
          <mxGeometry y="30" width="20" height="40" as="geometry" />
        </mxCell>
        <mxCell id="Ynnt0v_wUZmYZOfOkir--23" value=":MessageController" style="shape=umlLifeline;perimeter=lifelinePerimeter;whiteSpace=wrap;html=1;container=1;dropTarget=0;collapsible=0;recursiveResize=0;outlineConnect=0;portConstraint=eastwest;newEdgeStyle={&quot;curved&quot;:0,&quot;rounded&quot;:0};" vertex="1" parent="1">
          <mxGeometry x="310" y="70" width="120" height="470" as="geometry" />
        </mxCell>
        <mxCell id="Ynnt0v_wUZmYZOfOkir--45" value="" style="html=1;points=[[0,0,0,0,5],[0,1,0,0,-5],[1,0,0,0,5],[1,1,0,0,-5]];perimeter=orthogonalPerimeter;outlineConnect=0;targetShapes=umlLifeline;portConstraint=eastwest;newEdgeStyle={&quot;curved&quot;:0,&quot;rounded&quot;:0};" vertex="1" parent="Ynnt0v_wUZmYZOfOkir--23">
          <mxGeometry x="55" y="270" width="10" height="140" as="geometry" />
        </mxCell>
        <mxCell id="Ynnt0v_wUZmYZOfOkir--29" value="&lt;font style=&quot;font-size: 8px;&quot;&gt;getMessages(chatroomId)&lt;/font&gt;" style="html=1;verticalAlign=bottom;endArrow=block;curved=0;rounded=0;" edge="1" parent="1" source="Ynnt0v_wUZmYZOfOkir--16">
          <mxGeometry width="80" relative="1" as="geometry">
            <mxPoint x="375" y="190" as="sourcePoint" />
            <mxPoint x="505" y="190" as="targetPoint" />
            <Array as="points">
              <mxPoint x="495" y="190" />
            </Array>
          </mxGeometry>
        </mxCell>
        <mxCell id="Ynnt0v_wUZmYZOfOkir--30" value="" style="shape=datastore;whiteSpace=wrap;html=1;" vertex="1" parent="1">
          <mxGeometry x="640" y="50" width="60" height="70" as="geometry" />
        </mxCell>
        <mxCell id="Ynnt0v_wUZmYZOfOkir--31" value="" style="shape=image;imageAspect=0;aspect=fixed;verticalLabelPosition=bottom;verticalAlign=top;image=https://www.strongdm.com/hubfs/21126185/Technology%20Images/603c5eb831820c3ce6a8f057_603a1586fa052d17fc2a6929_MongoDBAtlas.png;" vertex="1" parent="1">
          <mxGeometry x="650" y="80" width="40" height="40" as="geometry" />
        </mxCell>
        <mxCell id="Ynnt0v_wUZmYZOfOkir--33" value="" style="endArrow=none;dashed=1;html=1;dashPattern=1 3;strokeWidth=2;rounded=0;entryX=0.5;entryY=1;entryDx=0;entryDy=0;" edge="1" parent="1" source="Ynnt0v_wUZmYZOfOkir--34" target="Ynnt0v_wUZmYZOfOkir--31">
          <mxGeometry width="50" height="50" relative="1" as="geometry">
            <mxPoint x="670" y="421.82857840401783" as="sourcePoint" />
            <mxPoint x="680" y="150" as="targetPoint" />
          </mxGeometry>
        </mxCell>
        <mxCell id="Ynnt0v_wUZmYZOfOkir--35" value="" style="endArrow=none;dashed=1;html=1;dashPattern=1 3;strokeWidth=2;rounded=0;entryX=0.5;entryY=1;entryDx=0;entryDy=0;" edge="1" parent="1" target="Ynnt0v_wUZmYZOfOkir--34">
          <mxGeometry width="50" height="50" relative="1" as="geometry">
            <mxPoint x="670" y="540" as="sourcePoint" />
            <mxPoint x="670" y="120" as="targetPoint" />
          </mxGeometry>
        </mxCell>
        <mxCell id="Ynnt0v_wUZmYZOfOkir--34" value="" style="html=1;points=[[0,0,0,0,5],[0,1,0,0,-5],[1,0,0,0,5],[1,1,0,0,-5]];perimeter=orthogonalPerimeter;outlineConnect=0;targetShapes=umlLifeline;portConstraint=eastwest;newEdgeStyle={&quot;curved&quot;:0,&quot;rounded&quot;:0};" vertex="1" parent="1">
          <mxGeometry x="665" y="205" width="10" height="20" as="geometry" />
        </mxCell>
        <mxCell id="Ynnt0v_wUZmYZOfOkir--36" value="&lt;font style=&quot;font-size: 8px;&quot;&gt;findById(chatroomId)&lt;/font&gt;" style="html=1;verticalAlign=bottom;endArrow=block;curved=0;rounded=0;" edge="1" parent="1" target="Ynnt0v_wUZmYZOfOkir--34">
          <mxGeometry width="80" relative="1" as="geometry">
            <mxPoint x="515" y="205" as="sourcePoint" />
            <mxPoint x="650" y="205" as="targetPoint" />
            <Array as="points">
              <mxPoint x="640" y="205" />
            </Array>
          </mxGeometry>
        </mxCell>
        <mxCell id="Ynnt0v_wUZmYZOfOkir--43" value="&lt;font style=&quot;font-size: 8px;&quot;&gt;sendMessage&lt;/font&gt;" style="html=1;verticalAlign=bottom;endArrow=block;curved=0;rounded=0;entryX=0.086;entryY=0.004;entryDx=0;entryDy=0;entryPerimeter=0;" edge="1" parent="1">
          <mxGeometry x="0.0027" relative="1" as="geometry">
            <mxPoint x="120" y="330" as="sourcePoint" />
            <mxPoint x="226" y="330" as="targetPoint" />
            <mxPoint as="offset" />
          </mxGeometry>
        </mxCell>
        <mxCell id="Ynnt0v_wUZmYZOfOkir--44" value="" style="html=1;points=[[0,0,0,0,5],[0,1,0,0,-5],[1,0,0,0,5],[1,1,0,0,-5]];perimeter=orthogonalPerimeter;outlineConnect=0;targetShapes=umlLifeline;portConstraint=eastwest;newEdgeStyle={&quot;curved&quot;:0,&quot;rounded&quot;:0};" vertex="1" parent="1">
          <mxGeometry x="225" y="330" width="10" height="10" as="geometry" />
        </mxCell>
        <mxCell id="Ynnt0v_wUZmYZOfOkir--46" value=":MessageService" style="shape=umlLifeline;perimeter=lifelinePerimeter;whiteSpace=wrap;html=1;container=1;dropTarget=0;collapsible=0;recursiveResize=0;outlineConnect=0;portConstraint=eastwest;newEdgeStyle={&quot;curved&quot;:0,&quot;rounded&quot;:0};" vertex="1" parent="1">
          <mxGeometry x="450" y="70" width="120" height="470" as="geometry" />
        </mxCell>
        <mxCell id="Ynnt0v_wUZmYZOfOkir--47" value="" style="html=1;points=[[0,0,0,0,5],[0,1,0,0,-5],[1,0,0,0,5],[1,1,0,0,-5]];perimeter=orthogonalPerimeter;outlineConnect=0;targetShapes=umlLifeline;portConstraint=eastwest;newEdgeStyle={&quot;curved&quot;:0,&quot;rounded&quot;:0};" vertex="1" parent="Ynnt0v_wUZmYZOfOkir--46">
          <mxGeometry x="55" y="120" width="10" height="50" as="geometry" />
        </mxCell>
        <mxCell id="Ynnt0v_wUZmYZOfOkir--63" value="" style="html=1;points=[[0,0,0,0,5],[0,1,0,0,-5],[1,0,0,0,5],[1,1,0,0,-5]];perimeter=orthogonalPerimeter;outlineConnect=0;targetShapes=umlLifeline;portConstraint=eastwest;newEdgeStyle={&quot;curved&quot;:0,&quot;rounded&quot;:0};" vertex="1" parent="Ynnt0v_wUZmYZOfOkir--46">
          <mxGeometry x="55" y="350" width="10" height="30" as="geometry" />
        </mxCell>
        <mxCell id="Ynnt0v_wUZmYZOfOkir--48" value="" style="html=1;verticalAlign=bottom;endArrow=block;curved=0;rounded=0;" edge="1" parent="1">
          <mxGeometry x="0.4286" y="15" relative="1" as="geometry">
            <mxPoint x="235" y="340" as="sourcePoint" />
            <mxPoint x="365" y="340" as="targetPoint" />
            <mxPoint as="offset" />
          </mxGeometry>
        </mxCell>
        <mxCell id="Ynnt0v_wUZmYZOfOkir--50" value="handleSendMessage(message, chatroomId)" style="edgeLabel;html=1;align=center;verticalAlign=middle;resizable=0;points=[];fontSize=6;" vertex="1" connectable="0" parent="Ynnt0v_wUZmYZOfOkir--48">
          <mxGeometry x="-0.0012" y="2" relative="1" as="geometry">
            <mxPoint y="-8" as="offset" />
          </mxGeometry>
        </mxCell>
        <mxCell id="Ynnt0v_wUZmYZOfOkir--51" value="&lt;font style=&quot;font-size: 8px;&quot;&gt;par&lt;/font&gt;" style="shape=umlFrame;whiteSpace=wrap;html=1;pointerEvents=0;width=40;height=15;" vertex="1" parent="1">
          <mxGeometry x="80" y="350" width="740" height="110" as="geometry" />
        </mxCell>
        <mxCell id="Ynnt0v_wUZmYZOfOkir--55" value="&lt;font style=&quot;font-size: 8px;&quot;&gt;receiveMessage&lt;/font&gt;" style="html=1;verticalAlign=bottom;endArrow=block;curved=0;rounded=0;" edge="1" parent="1" target="Ynnt0v_wUZmYZOfOkir--52">
          <mxGeometry width="80" relative="1" as="geometry">
            <mxPoint x="365" y="370" as="sourcePoint" />
            <mxPoint x="340" y="370" as="targetPoint" />
            <mxPoint as="offset" />
          </mxGeometry>
        </mxCell>
        <mxCell id="Ynnt0v_wUZmYZOfOkir--58" value="" style="endArrow=none;dashed=1;html=1;dashPattern=1 3;strokeWidth=2;rounded=0;exitX=0.001;exitY=0.614;exitDx=0;exitDy=0;exitPerimeter=0;entryX=0.997;entryY=0.632;entryDx=0;entryDy=0;entryPerimeter=0;" edge="1" parent="1">
          <mxGeometry width="50" height="50" relative="1" as="geometry">
            <mxPoint x="79.99999999999996" y="400" as="sourcePoint" />
            <mxPoint x="817.04" y="401.80000000000007" as="targetPoint" />
          </mxGeometry>
        </mxCell>
        <mxCell id="Ynnt0v_wUZmYZOfOkir--59" value="&lt;font style=&quot;font-size: 8px;&quot;&gt;receiveMessage&lt;/font&gt;" style="html=1;verticalAlign=bottom;endArrow=block;curved=0;rounded=0;" edge="1" parent="1">
          <mxGeometry width="80" relative="1" as="geometry">
            <mxPoint x="225" y="390" as="sourcePoint" />
            <mxPoint x="120" y="390" as="targetPoint" />
            <mxPoint as="offset" />
          </mxGeometry>
        </mxCell>
        <mxCell id="Ynnt0v_wUZmYZOfOkir--61" value="" style="html=1;points=[[0,0,0,0,5],[0,1,0,0,-5],[1,0,0,0,5],[1,1,0,0,-5]];perimeter=orthogonalPerimeter;outlineConnect=0;targetShapes=umlLifeline;portConstraint=eastwest;newEdgeStyle={&quot;curved&quot;:0,&quot;rounded&quot;:0};" vertex="1" parent="1">
          <mxGeometry x="665" y="430" width="10" height="10" as="geometry" />
        </mxCell>
        <mxCell id="Ynnt0v_wUZmYZOfOkir--66" value="" style="html=1;verticalAlign=bottom;endArrow=block;curved=0;rounded=0;" edge="1" parent="1" source="Ynnt0v_wUZmYZOfOkir--45" target="Ynnt0v_wUZmYZOfOkir--63">
          <mxGeometry x="0.4286" y="15" relative="1" as="geometry">
            <mxPoint x="380" y="410.43" as="sourcePoint" />
            <mxPoint x="500" y="410" as="targetPoint" />
            <mxPoint as="offset" />
            <Array as="points">
              <mxPoint x="450" y="420" />
            </Array>
          </mxGeometry>
        </mxCell>
        <mxCell id="Ynnt0v_wUZmYZOfOkir--67" value="appendMessages(message, chatroomId)" style="edgeLabel;html=1;align=center;verticalAlign=middle;resizable=0;points=[];fontSize=6;" vertex="1" connectable="0" parent="Ynnt0v_wUZmYZOfOkir--66">
          <mxGeometry x="-0.0012" y="2" relative="1" as="geometry">
            <mxPoint y="-8" as="offset" />
          </mxGeometry>
        </mxCell>
        <mxCell id="Ynnt0v_wUZmYZOfOkir--70" value="&lt;font style=&quot;font-size: 8px;&quot;&gt;findByIdAndUpdate(chatroomId)&lt;/font&gt;" style="html=1;verticalAlign=bottom;endArrow=block;curved=0;rounded=0;" edge="1" parent="1">
          <mxGeometry width="80" relative="1" as="geometry">
            <mxPoint x="515" y="430" as="sourcePoint" />
            <mxPoint x="665" y="430" as="targetPoint" />
            <Array as="points">
              <mxPoint x="640" y="430" />
            </Array>
          </mxGeometry>
        </mxCell>
      </root>
    </mxGraphModel>
  </diagram>
</mxfile>
